<svg xmlns="http://www.w3.org/2000/svg" viewBox="0 0 512 512" role="img" aria-labelledby="title description">
  <title id="title">OctoStore octopus referee mascot</title>
  <desc id="description">A cartoon octopus referee juggling leader-election signals, a whistle, a clipboard, and a tiny server.</desc>

  <!-- Eight arms: sticker keyline, ink, then color. -->
  <g fill="none" stroke-linecap="round" stroke-linejoin="round">
    <g stroke="#f6f4ff" stroke-width="48">
      <path d="M211 285C157 270 112 230 82 171"/>
      <path d="M198 299C142 301 105 330 61 323"/>
      <path d="M214 315C169 349 147 393 116 438"/>
      <path d="M239 324C216 369 220 414 195 452"/>
      <path d="M273 324C296 371 288 416 321 452"/>
      <path d="M296 313C350 338 387 382 448 417"/>
      <path d="M307 292C364 272 411 231 440 171"/>
      <path d="M307 305C365 296 414 314 466 294"/>
    </g>
    <g stroke="#080817" stroke-width="34">
      <path d="M211 285C157 270 112 230 82 171"/>
      <path d="M198 299C142 301 105 330 61 323"/>
      <path d="M214 315C169 349 147 393 116 438"/>
      <path d="M239 324C216 369 220 414 195 452"/>
      <path d="M273 324C296 371 288 416 321 452"/>
      <path d="M296 313C350 338 387 382 448 417"/>
      <path d="M307 292C364 272 411 231 440 171"/>
      <path d="M307 305C365 296 414 314 466 294"/>
    </g>
    <g stroke-width="21">
      <path d="M211 285C157 270 112 230 82 171" stroke="#91f51d"/>
      <path d="M198 299C142 301 105 330 61 323" stroke="#8657d9"/>
      <path d="M214 315C169 349 147 393 116 438" stroke="#27c7e8"/>
      <path d="M239 324C216 369 220 414 195 452" stroke="#8657d9"/>
      <path d="M273 324C296 371 288 416 321 452" stroke="#27c7e8"/>
      <path d="M296 313C350 338 387 382 448 417" stroke="#8657d9"/>
      <path d="M307 292C364 272 411 231 440 171" stroke="#27c7e8"/>
      <path d="M307 305C365 296 414 314 466 294" stroke="#91f51d"/>
    </g>
  </g>

  <!-- Signal paddles. -->
  <g stroke-linejoin="round">
    <circle cx="74" cy="132" r="39" fill="#91f51d" stroke="#f6f4ff" stroke-width="18"/>
    <circle cx="74" cy="132" r="39" fill="#91f51d" stroke="#080817" stroke-width="9"/>
    <path d="M58 132h32M74 116v32" fill="none" stroke="#080817" stroke-linecap="round" stroke-width="8"/>

    <path d="m61 283 29 12 12 29-12 29-29 12-29-12-12-29 12-29Z" fill="#ff6666" stroke="#f6f4ff" stroke-width="18"/>
    <path d="m61 283 29 12 12 29-12 29-29 12-29-12-12-29 12-29Z" fill="#ff6666" stroke="#080817" stroke-width="9"/>
    <path d="m42 305 38 38" fill="none" stroke="#080817" stroke-linecap="round" stroke-width="9"/>

    <path d="m440 93 29 12 12 29-12 29-29 12-29-12-12-29 12-29Z" fill="#ff6666" stroke="#f6f4ff" stroke-width="18"/>
    <path d="m440 93 29 12 12 29-12 29-29 12-29-12-12-29 12-29Z" fill="#ff6666" stroke="#080817" stroke-width="9"/>
    <path d="m421 115 38 38" fill="none" stroke="#080817" stroke-linecap="round" stroke-width="9"/>
  </g>

  <!-- Whistle, clipboard, and server. -->
  <g stroke="#080817" stroke-linejoin="round">
    <path d="m82 434 35-15 26 18-11 30-39-1-16-17Z" fill="#f6f4ff" stroke="#f6f4ff" stroke-width="16"/>
    <path d="m82 434 35-15 26 18-11 30-39-1-16-17Z" fill="#f6f4ff" stroke-width="8"/>
    <circle cx="119" cy="444" r="8" fill="#27c7e8" stroke-width="6"/>
    <path d="m78 447-20 5" fill="none" stroke-linecap="round" stroke-width="8"/>

    <rect x="158" y="424" width="72" height="72" rx="9" fill="#f6f4ff" stroke="#f6f4ff" stroke-width="18"/>
    <rect x="158" y="424" width="72" height="72" rx="9" fill="#f6f4ff" stroke-width="8"/>
    <rect x="178" y="412" width="32" height="19" rx="7" fill="#91f51d" stroke-width="7"/>
    <path d="M174 450h40M174 468h29" fill="none" stroke-linecap="round" stroke-width="7"/>

    <rect x="284" y="425" width="77" height="67" rx="10" fill="#27c7e8" stroke="#f6f4ff" stroke-width="18"/>
    <rect x="284" y="425" width="77" height="67" rx="10" fill="#27c7e8" stroke-width="8"/>
    <path d="M298 445h49M298 463h49" fill="none" stroke-linecap="round" stroke-width="7"/>
    <circle cx="341" cy="445" r="4" fill="#91f51d" stroke="none"/>
    <circle cx="341" cy="463" r="4" fill="#ff6666" stroke="none"/>
  </g>

  <!-- Two absurdly emphatic referee gloves. -->
  <g fill="#f6f4ff" stroke="#080817" stroke-linecap="round" stroke-linejoin="round" stroke-width="8">
    <path d="M430 397c6-16 13-26 20-24 8 2 6 15 4 24 7-15 14-23 21-20 7 4 2 17-2 25 8-11 16-16 22-11 7 7-3 19-10 25 9-5 18-5 21 2 5 12-16 27-35 31-21 4-39-4-43-20-3-10-1-22 2-32Z"/>
    <path d="M448 276c10 1 24-4 35-10 13-8 21-3 18 6-2 6-11 13-19 17 12 0 22 4 21 12-2 9-18 11-29 9-12-2-27-7-35-13Z"/>
  </g>

  <!-- Main octopus head. -->
  <path d="M168 246c-18-43-8-103 28-137 30-29 87-37 126-12 42 27 59 91 39 142-13 34-43 64-103 66-58 2-77-25-90-59Z" fill="#8657d9" stroke="#f6f4ff" stroke-linejoin="round" stroke-width="25"/>
  <path d="M168 246c-18-43-8-103 28-137 30-29 87-37 126-12 42 27 59 91 39 142-13 34-43 64-103 66-58 2-77-25-90-59Z" fill="#8657d9" stroke="#080817" stroke-linejoin="round" stroke-width="12"/>

  <!-- Referee cap. -->
  <path d="M194 107c14-41 99-58 135-9l-8 45-119 2Z" fill="#f6f4ff" stroke="#080817" stroke-linejoin="round" stroke-width="10"/>
  <path d="M225 85c16-8 34-11 52-8l7 66-42 1Z" fill="#91f51d" stroke="#080817" stroke-linejoin="round" stroke-width="8"/>
  <path d="M186 139c44-11 108-14 150-2 13 4 12 23-1 25-46-6-99-3-139 6-16 3-23-23-10-29Z" fill="#27c7e8" stroke="#080817" stroke-width="9"/>

  <!-- Face. -->
  <g stroke="#080817">
    <ellipse cx="219" cy="198" rx="39" ry="46" fill="#f6f4ff" stroke-width="9"/>
    <ellipse cx="294" cy="194" rx="42" ry="49" fill="#f6f4ff" stroke-width="9"/>
    <circle cx="229" cy="209" r="14" fill="#080817" stroke="none"/>
    <circle cx="282" cy="180" r="15" fill="#080817" stroke="none"/>
    <circle cx="234" cy="204" r="5" fill="#f6f4ff" stroke="none"/>
    <circle cx="287" cy="175" r="5" fill="#f6f4ff" stroke="none"/>
    <path d="M267 141c25-17 51-12 63 2" fill="none" stroke-linecap="round" stroke-width="12"/>
  </g>

  <!-- Manic trustworthy grin. -->
  <path d="M202 242c30 17 74 20 111-5-5 42-31 61-62 58-27-3-45-22-49-53Z" fill="#080817" stroke="#080817" stroke-linejoin="round" stroke-width="8"/>
  <path d="M214 250c26 10 57 11 84-2-7 18-23 27-43 27-18 0-33-8-41-25Z" fill="#f6f4ff"/>
  <path d="M244 285c13-9 29-10 43-3-9 11-20 15-32 13-5-1-9-4-11-10Z" fill="#ff6666"/>

  <!-- Whistle cord and referee badge. -->
  <path d="M326 248c21 9 32 25 26 45" fill="none" stroke="#080817" stroke-linecap="round" stroke-width="7"/>
  <circle cx="344" cy="296" r="16" fill="#91f51d" stroke="#080817" stroke-width="7"/>
  <path d="m338 296 5 5 9-12" fill="none" stroke="#080817" stroke-linecap="round" stroke-linejoin="round" stroke-width="5"/>
</svg>
