<svg xmlns="http://www.w3.org/2000/svg" viewBox="0 0 128 128" role="img" aria-labelledby="mark-title">
  <title id="mark-title">OctoStore mascot mark</title>
  <rect x="6" y="6" width="116" height="116" rx="28" fill="#080817" stroke="#f6f4ff" stroke-width="6"/>
  <path d="M43 83c-15 9-19 21-11 27 8 5 17-7 20-18M85 83c15 9 19 21 11 27-8 5-17-7-20-18" fill="none" stroke="#f6f4ff" stroke-linecap="round" stroke-width="18"/>
  <path d="M43 83c-15 9-19 21-11 27 8 5 17-7 20-18" fill="none" stroke="#27c7e8" stroke-linecap="round" stroke-width="10"/>
  <path d="M85 83c15 9 19 21 11 27-8 5-17-7-20-18" fill="none" stroke="#91f51d" stroke-linecap="round" stroke-width="10"/>
  <path d="M31 74c-3-29 12-49 34-49 25 0 38 23 32 51-4 19-17 28-34 28-18 0-30-10-32-30Z" fill="#8657d9" stroke="#f6f4ff" stroke-linejoin="round" stroke-width="10"/>
  <path d="M31 74c-3-29 12-49 34-49 25 0 38 23 32 51-4 19-17 28-34 28-18 0-30-10-32-30Z" fill="#8657d9" stroke="#080817" stroke-linejoin="round" stroke-width="6"/>
  <path d="M42 31c8-18 39-21 50-3l-4 19-44 1Z" fill="#91f51d" stroke="#080817" stroke-linejoin="round" stroke-width="6"/>
  <path d="M39 46c15-5 39-6 55-1" fill="none" stroke="#27c7e8" stroke-linecap="round" stroke-width="9"/>
  <ellipse cx="50" cy="65" rx="14" ry="17" fill="#f6f4ff" stroke="#080817" stroke-width="5"/>
  <ellipse cx="76" cy="64" rx="15" ry="18" fill="#f6f4ff" stroke="#080817" stroke-width="5"/>
  <circle cx="55" cy="69" r="5" fill="#080817"/>
  <circle cx="71" cy="59" r="5" fill="#080817"/>
  <path d="M49 85c10 5 21 5 30-1-3 10-9 14-16 14-7 0-12-4-14-13Z" fill="#f6f4ff" stroke="#080817" stroke-linejoin="round" stroke-width="4"/>
</svg>
